<svg width="21" height="26" viewBox="0 0 21 26" fill="none" xmlns="http://www.w3.org/2000/svg">
<path fill-rule="evenodd" clip-rule="evenodd" d="M14.2034 9.9064V11.5298C14.2034 12.4236 15.2864 12.8684 15.9147 12.2327L20.6782 7.41199C20.8631 7.22481 20.9669 6.97226 20.9669 6.70911V6.26092C20.9669 6.01278 20.8746 5.7735 20.708 5.58958L15.9445 0.330677C15.3303 -0.347418 14.2034 0.087095 14.2034 1.00201V3.14289H4.02905C2.92448 3.14289 2.02905 4.03832 2.02905 5.14289V7.9064C2.02905 9.01097 2.92448 9.9064 4.02905 9.9064H14.2034Z" fill="#2363C1"/>
<path fill-rule="evenodd" clip-rule="evenodd" d="M6.08715 15.9934V14.5645C6.08715 13.6451 4.95089 13.2129 4.33991 13.9L0.252754 18.4957C0.0899404 18.6788 0 18.9153 0 19.1603V19.6685C0 19.8987 0.0794432 20.1219 0.224918 20.3003L4.31207 25.3139C4.90644 26.043 6.08715 25.6227 6.08715 24.682V22.7569L16.9378 22.7569C18.0424 22.7569 18.9378 21.8615 18.9378 20.7569V17.9934C18.9378 16.8888 18.0424 15.9934 16.9378 15.9934L6.08715 15.9934Z" fill="#2363C1"/>
</svg>
