<svg width="88" height="88" viewBox="0 0 88 88" fill="none" xmlns="http://www.w3.org/2000/svg">
<path d="M37.4436 33.0367L34.5915 35.4773L27.1402 17.8419L30.0324 15.4517L37.4436 33.0367Z" fill="#F2F1EF"/>
<path d="M34.5916 35.4771L37.4436 33.0365L21.3958 22.6724L18.5438 25.113L34.5916 35.4771Z" fill="#F2F1EF"/>
<path d="M31.9561 39.6411L31.3095 43.2901L14.2377 34.6501L14.9348 30.9607L31.9561 39.6411Z" fill="#F2F1EF"/>
<path d="M31.3095 43.2901L31.9561 39.6411L12.9341 42.0389L12.2875 45.6879L31.3095 43.2901Z" fill="#F2F1EF"/>
<path d="M31.9908 48.1885L33.8269 51.4232L15.1823 55.7459L13.2956 52.5517L31.9908 48.1885Z" fill="#F2F1EF"/>
<path d="M33.8269 51.4231L31.9907 48.1885L18.9454 62.2251L20.7815 65.4598L33.8269 51.4231Z" fill="#F2F1EF"/>
<path d="M37.4483 54.7173L41.0255 55.9856L29.3986 71.2815L25.9121 70.0233L37.4483 54.7173Z" fill="#F2F1EF"/>
<path d="M41.0255 55.9857L37.4483 54.7173L36.4622 73.8082L39.9888 75.1168L41.0255 55.9857Z" fill="#F2F1EF"/>
<path d="M45.8771 56.1547L49.4216 54.8931L50.4126 73.9729L46.8681 75.2345L45.8771 56.1547Z" fill="#F2F1EF"/>
<path d="M49.4217 54.8931L45.8771 56.1547L57.411 71.4397L60.9153 70.1277L49.4217 54.8931Z" fill="#F2F1EF"/>
<path d="M53.3042 51.8775L55.1502 48.5907L68.2111 62.5748L66.325 65.8111L53.3042 51.8775Z" fill="#F2F1EF"/>
<path d="M55.1502 48.5907L53.3042 51.8775L71.9834 56.102L73.8293 52.8153L55.1502 48.5907Z" fill="#F2F1EF"/>
<path d="M56.2038 43.7924L55.5695 40.0936L74.557 42.423L75.1913 46.1219L56.2038 43.7924Z" fill="#F2F1EF"/>
<path d="M55.5695 40.0936L56.2038 43.7924L73.2377 35.0657L72.6436 31.4173L55.5695 40.0936Z" fill="#F2F1EF"/>
<path d="M53.3028 35.8008L50.4049 33.4133L66.4857 22.9736L69.3837 25.361L53.3028 35.8008Z" fill="#F2F1EF"/>
<path d="M50.4049 33.4133L53.3028 35.8008L60.7405 18.1584L57.9333 15.7809L50.4049 33.4133Z" fill="#F2F1EF"/>
<path d="M45.8812 31.5811L42.1188 31.5325L47.7932 13.2357L51.5154 13.234L45.8812 31.5811Z" fill="#3B8AFF"/>
<path d="M42.1188 31.5324L45.8813 31.581L40.2981 13.2795L36.5758 13.2813L42.1188 31.5324Z" fill="#3B8AFF"/>
</svg>
