<svg width="18" height="21" viewBox="0 0 18 21" fill="none" xmlns="http://www.w3.org/2000/svg">
<path d="M12 8C12.5523 8 13 8.44772 13 9V20C13 20.5523 12.5523 21 12 21H11C10.4477 21 10 20.5523 10 20L10 9C10 8.44772 10.4477 8 11 8H12Z" fill="#2363C1"/>
<path d="M17 4.11405e-08C17.5523 6.38616e-08 18 0.447715 18 1V20C18 20.5523 17.5523 21 17 21H16C15.4477 21 15 20.5523 15 20L15 1C15 0.447715 15.4477 -2.27206e-08 16 0L17 4.11405e-08Z" fill="#2363C1"/>
<path d="M7 3C7.55229 3 8 3.44772 8 4L8 20C8 20.5523 7.55228 21 7 21H6C5.44771 21 5 20.5523 5 20L5 4C5 3.44772 5.44772 3 6 3H7Z" fill="#2363C1"/>
<path d="M2 11C2.55228 11 3 11.4477 3 12L3 20C3 20.5523 2.55228 21 2 21H1C0.447715 21 -1.95428e-08 20.5523 0 20L2.83083e-07 12C3.02626e-07 11.4477 0.447716 11 1 11H2Z" fill="#2363C1"/>
</svg>
